<svg height="511pt" viewBox="0 -9 511.99953 511" width="511pt" xmlns="http://www.w3.org/2000/svg"><path d="m58.144531 209.929688c-16.75-20.167969-26.824219-46.078126-26.824219-74.339844v-11.167969c0-64.296875 52.125-116.417969 116.417969-116.417969h60.214844c64.296875 0 116.417969 52.121094 116.417969 116.417969v11.167969c0 64.296875-52.121094 116.417968-116.417969 116.417968h-200.542969zm0 0" fill="#ffcd38"/><path d="m317.058594 176.269531h-42.585938c-57.894531 0-108.863281 30.234375-137.949218 75.738281h71.429687c49.984375 0 92.605469-31.503906 109.105469-75.738281zm0 0" fill="#e7b835"/><path d="m446.371094 437.984375c19.222656-23.140625 30.78125-52.871094 30.78125-85.300781v-12.8125c0-73.78125-59.808594-133.589844-133.585938-133.589844h-69.09375c-73.777344 0-133.589844 59.808594-133.589844 133.589844v12.8125c0 73.777344 59.8125 133.585937 133.589844 133.585937h230.117188zm0 0" fill="#3ac7b4"/><path d="m219.398438 344.339844v14.859375c0 4.144531 3.359374 7.503906 7.5 7.503906 4.144531 0 7.503906-3.359375 7.503906-7.503906v-14.859375c0-4.144532-3.359375-7.503906-7.503906-7.503906-4.140626 0-7.5 3.359374-7.5 7.503906zm0 0"/><path d="m398.609375 344.339844v14.859375c0 4.144531-3.359375 7.503906-7.503906 7.503906s-7.503907-3.359375-7.503907-7.503906v-14.859375c0-4.144532 3.359376-7.503906 7.503907-7.503906s7.503906 3.359374 7.503906 7.503906zm0 0"/><path d="m323.617188 353.226562c-3.554688 4.066407-8.882813 6.398438-14.613282 6.398438-5.734375 0-11.0625-2.332031-14.617187-6.398438-2.726563-3.121093-7.464844-3.4375-10.585938-.710937-3.121093 2.726563-3.4375 7.464844-.710937 10.585937 6.40625 7.328126 15.851562 11.53125 25.914062 11.53125s19.503906-4.203124 25.910156-11.53125c2.726563-3.117187 2.410157-7.859374-.710937-10.585937s-7.859375-2.410156-10.585937.710937zm0 0"/><path d="m256.882812 141.265625v-12.949219c0-4.140625-3.359374-7.5-7.503906-7.5-4.144531 0-7.503906 3.359375-7.503906 7.5v12.949219c0 4.144531 3.359375 7.503906 7.503906 7.503906 4.144532 0 7.503906-3.359375 7.503906-7.503906zm0 0"/><path d="m113.78125 141.265625v-12.949219c0-4.140625-3.359375-7.5-7.503906-7.5-4.140625 0-7.5 3.359375-7.5 7.5v12.949219c0 4.144531 3.359375 7.503906 7.5 7.503906 4.144531 0 7.503906-3.359375 7.503906-7.503906zm0 0"/><path d="m177.828125 155.683594c9.046875 0 17.542969-3.785156 23.308594-10.378906 2.726562-3.121094 2.410156-7.859376-.710938-10.585938-3.121093-2.730469-7.859375-2.410156-10.585937.710938-2.914063 3.332031-7.292969 5.246093-12.011719 5.246093-4.714844 0-9.09375-1.910156-12.007813-5.246093-2.730468-3.121094-7.46875-3.441407-10.589843-.710938-3.117188 2.726562-3.4375 7.464844-.710938 10.585938 5.765625 6.59375 14.261719 10.378906 23.308594 10.378906zm0 0"/><path d="m7.394531 259.511719h151.160157c-15.871094 22.816406-25.1875 50.515625-25.1875 80.355469v12.816406c0 77.796875 63.292968 141.089844 141.089843 141.089844h230.117188c6.871093 0 10.074219-8.894532 4.789062-13.277344l-52.59375-43.621094c18.023438-24.234375 27.871094-53.84375 27.871094-84.191406v-12.816406c0-28.691407-8.574219-56.316407-24.789063-79.882813-2.347656-3.414063-7.019531-4.277344-10.433593-1.925781-3.414063 2.347656-4.277344 7.019531-1.929688 10.433594 14.488281 21.050781 22.144531 45.734374 22.144531 71.375v12.816406c0 29.363281-10.316406 57.953125-29.046874 80.507812-2.617188 3.148438-2.167969 7.957032.980468 10.566406l42.210938 35.011719h-209.320313c-69.523437 0-126.085937-56.5625-126.085937-126.085937v-12.816406c0-48.847657 27.925781-91.296876 68.648437-112.226563 17.621094-9.054687 37.625-13.859375 57.4375-13.859375h69.09375c31.699219 0 62 11.8125 85.320313 33.265625 3.050781 2.804687 7.796875 2.605469 10.601562-.445313 2.804688-3.046874 2.609375-7.792968-.441406-10.597656-26.101562-24.007812-60.007812-37.226562-95.480469-37.226562h-29c11.355469-19.054688 17.304688-40.632813 17.304688-63.1875v-11.167969c0-68.332031-55.589844-123.921875-123.917969-123.921875h-60.214844c-26.386718 0-51.582031 8.191406-72.867187 23.6875-3.347657 2.4375-4.085938 7.128906-1.648438 10.480469 2.441407 3.347656 7.132813 4.089843 10.484375 1.648437 18.695313-13.613281 40.839844-20.8125 64.03125-20.8125h60.214844c60.054688 0 108.914062 48.859375 108.914062 108.917969v11.167969c0 22.910156-6.972656 44.675781-20.203124 63.1875h-22.191407c-39.234375 0-77.457031 16.824218-103.976562 45.726562h-142.289063s34.679688-28.765625 34.730469-28.804687c3.15625-2.617188 3.601563-7.414063.980469-10.566407-16.183594-19.480468-25.09375-44.179687-25.09375-69.542968v-11.167969c0-25.011719 8.691406-49.441406 24.476562-68.792969 2.617188-3.210937 2.136719-7.933594-1.074218-10.554687-3.210938-2.617188-7.9375-2.140625-10.554688 1.070312-17.960938 22.023438-27.855469 49.820313-27.855469 78.277344v11.167969c0 26.34375 8.457031 52.0625 23.9375 73.207031 0 0-45.011719 37.335937-45.132812 37.433594-5.242188 4.351562-2.027344 13.28125 4.789062 13.28125zm0 0"/></svg>