<svg height="511pt" viewBox="-24 1 511 511.999" width="511pt" xmlns="http://www.w3.org/2000/svg"><path d="m16.558594 213.691406c0-55.390625 22.660156-107.375 63.804687-146.375 40.691407-38.574218 94.679688-59.816406 152.015625-59.816406 57.304688 0 111.273438 21.222656 151.957032 59.757812 41.136718 38.964844 63.816406 90.90625 63.863281 146.261719v.359375zm0 0" fill="#465059"/><path d="m72.558594 213.691406c0-55.390625 22.660156-107.375 63.804687-146.375 33.992188-32.222656 77.265625-52.339844 124.015625-58.09375-9.214844-1.132812-18.558594-1.722656-28-1.722656-57.335937 0-111.324218 21.242188-152.015625 59.8125-41.144531 39.003906-63.804687 90.988281-63.804687 146.378906l431.640625.1875v-.023437zm0 0" fill="#3c474d"/><path d="m25.003906 259.660156c0 111.351563 98.003906 145.9375 98.003906 145.9375h51.988282v-72.96875l-98.105469-79.082031zm0 0" fill="#465059"/><path d="m65.003906 259.660156 16.988282-2.003906-5.101563-4.109375-51.886719 6.113281c0 111.351563 98.003906 145.9375 98.003906 145.9375h40s-98.003906-34.585937-98.003906-145.9375zm0 0" fill="#3c474d"/><path d="m439.753906 259.660156c0 111.351563-98.003906 145.9375-98.003906 145.9375h-51.988281v-72.96875l98.105469-79.082031zm0 0" fill="#465059"/><path d="m368.953125 448.636719c-21.769531-56.503907-72.261719-73.914063-72.261719-73.914063h-128.625s-45.066406 15.523438-68.410156 64.886719c-1.371094 2.894531-2.664062 5.902344-3.859375 9.03125l56.550781 55.859375h160.0625zm0 0" fill="#b9a8ff"/><path d="m125.796875 448.636719c1.195313-3.125 2.488281-6.132813 3.859375-9.027344 23.34375-49.363281 68.410156-64.890625 68.410156-64.890625h-30s-45.066406 15.527344-68.410156 64.890625c-1.371094 2.894531-2.664062 5.902344-3.859375 9.027344zm0 0" fill="#a394e0"/><path d="m456.757812 227.207031c0 21.808594-17.675781 39.484375-39.484374 39.484375-21.804688 0-39.480469-17.675781-39.480469-39.484375 0-21.804687 17.675781-39.480469 39.480469-39.480469 21.808593 0 39.484374 17.675782 39.484374 39.480469zm0 0" fill="#dfb297"/><path d="m276.042969 388.957031c0 24.113281-19.546875 43.664063-43.664063 43.664063-24.117187 0-43.667968-19.550782-43.667968-43.664063 0-24.117187 19.550781-43.667969 43.667968-43.667969 24.117188 0 43.664063 19.550782 43.664063 43.667969zm0 0" fill="#dfb297"/><path d="m417.273438 213.660156c0-12.355468-1.359376-24.414062-3.929688-36.046875-105.9375-.003906-219.792969-91.796875-219.792969-91.796875-59.058593 83.097656-142.023437 91.785156-142.136719 91.796875-2.570312 11.632813-3.929687 23.6875-3.929687 36.042969v-.335938.371094.371094-.339844c.019531 96.78125 82.792969 175.234375 184.894531 175.234375 102.105469 0 184.878906-78.453125 184.894532-175.238281v.34375c0-.125 0-.25 0-.371094 0-.125 0-.25 0-.371094zm0 0" fill="#fbc4ac"/><path d="m77.484375 213.722656v.339844c0-.125 0-.25 0-.375 0-.121094 0-.246094 0-.371094v.339844c0-8.394531.628906-27.585938 1.835937-42.679688-16.84375 5.472657-27.867187 6.628907-27.90625 6.632813-.742187 3.355469-1.371093 6.75-1.90625 10.167969-.652343-.035156-1.324218-.054688-2.023437-.054688-21.808594 0-39.484375 17.675782-39.484375 39.484375 0 21.804688 17.675781 39.480469 39.484375 39.480469 3.253906 0 5.960937-.402344 8.230469-1.144531 23.324218 71.480469 93.59375 123.410156 176.664062 123.410156 5.050782 0 10.050782-.199219 15-.574219-95.085937-7.238281-169.878906-82.660156-169.894531-174.65625zm0 0" fill="#dfb297"/><path d="m341.75 256.027344h-25.578125c-4.140625 0-7.5-3.355469-7.5-7.5 0-4.140625 3.359375-7.5 7.5-7.5h25.578125c4.140625 0 7.5 3.359375 7.5 7.5 0 4.144531-3.359375 7.5-7.5 7.5zm0 0" fill="#f98084"/><path d="m148.585938 256.027344h-25.578126c-4.140624 0-7.5-3.355469-7.5-7.5 0-4.140625 3.359376-7.5 7.5-7.5h25.578126c4.140624 0 7.5 3.359375 7.5 7.5 0 4.144531-3.359376 7.5-7.5 7.5zm0 0" fill="#f98084"/><path d="m96.640625 479.960938c-8.410156 0-15.230469-6.820313-15.230469-15.234376v-27.757812c0-8.410156 6.820313-15.230469 15.230469-15.230469 8.414063 0 15.234375 6.820313 15.234375 15.230469v27.757812c0 8.414063-6.820312 15.234376-15.234375 15.234376zm0 0" fill="#dfb297"/><path d="m111.789062 445.601562c-5.644531 0-11.039062 1.078126-15.992187 3.035157-21.746094 8.601562-32.894531 34.054687-24.566406 55.863281h81.117187c1.839844-4.8125 2.855469-10.03125 2.855469-15.484375 0-23.976563-19.4375-43.414063-43.414063-43.414063zm0 0" fill="#fbc4ac"/><path d="m368.117188 479.960938c8.410156 0 15.230468-6.820313 15.230468-15.234376v-27.757812c0-8.410156-6.820312-15.230469-15.230468-15.230469-8.414063 0-15.234376 6.820313-15.234376 15.230469v27.757812c0 8.414063 6.820313 15.234376 15.234376 15.234376zm0 0" fill="#dfb297"/><path d="m352.96875 445.601562c5.644531 0 11.039062 1.078126 15.992188 3.035157 21.746093 8.601562 32.894531 34.054687 24.566406 55.863281h-81.117188c-1.839844-4.8125-2.855468-10.03125-2.855468-15.484375 0-23.976563 19.4375-43.414063 43.414062-43.414063zm0 0" fill="#fbc4ac"/><path d="m328.960938 228.425781c4.140624 0 7.5-3.359375 7.5-7.5v-18.777343c0-4.144532-3.359376-7.5-7.5-7.5-4.140626 0-7.5 3.355468-7.5 7.5v18.777343c0 4.140625 3.355468 7.5 7.5 7.5zm0 0"/><path d="m135.796875 228.425781c4.140625 0 7.5-3.359375 7.5-7.5v-18.777343c0-4.144532-3.359375-7.5-7.5-7.5s-7.5 3.355468-7.5 7.5v18.777343c0 4.140625 3.359375 7.5 7.5 7.5zm0 0"/><path d="m232.378906 254.96875c8.898438 0 17.25-3.722656 22.921875-10.207031 2.726563-3.121094 2.40625-7.859375-.710937-10.585938-3.121094-2.726562-7.855469-2.40625-10.585938.710938-2.820312 3.230469-7.058594 5.082031-11.625 5.082031-4.570312 0-8.804687-1.851562-11.628906-5.082031-2.726562-3.117188-7.460938-3.4375-10.582031-.707031-3.117188 2.722656-3.4375 7.460937-.710938 10.582031 5.671875 6.484375 14.027344 10.207031 22.921875 10.207031zm0 0"/><path d="m.5 227.207031c0 14.546875 6.644531 27.566407 17.054688 36.191407 1.132812 58.085937 28.402343 95.347656 51.367187 116.5 15.9375 14.675781 31.800781 23.699218 41.65625 28.472656-1.925781 2.355468-3.816406 4.832031-5.65625 7.433594-2.570313-1.007813-5.359375-1.570313-8.28125-1.570313-12.535156 0-22.730469 10.199219-22.730469 22.734375v18.191406c-3.460937 3.945313-6.355468 8.453125-8.542968 13.4375-5.476563 12.46875-5.882813 26.167969-1.144532 38.578125 1.109375 2.902344 3.894532 4.824219 7.003906 4.824219h322.296876c3.109374 0 5.898437-1.921875 7.007812-4.824219 4.738281-12.410156 4.332031-26.109375-1.144531-38.578125-2.191407-4.984375-5.082031-9.492187-8.542969-13.4375v-18.191406c0-12.535156-10.195312-22.730469-22.730469-22.730469-2.929687 0-5.726562.5625-8.296875 1.574219-1.84375-2.601562-3.730468-5.078125-5.652344-7.433594 9.847657-4.769531 25.722657-13.796875 41.664063-28.476562 22.96875-21.15625 50.238281-58.417969 51.371094-116.503906 10.410156-8.625 17.054687-21.644532 17.054687-36.1875 0-10.351563-3.371094-19.925782-9.0625-27.695313-3.542968-52.015625-26.789062-100.816406-65.644531-137.648437-3.007813-2.847657-7.753906-2.722657-10.601563.285156-2.851562 3.007812-2.722656 7.753906.28125 10.601562 32.292969 30.605469 52.988282 70.070313 59.359376 112.570313-4.515626-2.300781-9.359376-3.738281-14.34375-4.574219-.023438-.003906-.050782-.007812-.074219-.011719-.1875-.027343-2.589844-.292969-2.589844-.316406-.023437-.128906-.054687-.261719-.082031-.390625-.265625-1.371094-.542969-2.71875-.832032-4.035156-.757812-3.433594-3.804687-5.882813-7.324218-5.882813-79.695313 0-165.460938-54.464843-199.707032-78.71875-5.203124-3.6875-10.398437-7.425781-15.378906-11.414062-3.316406-2.652344-8.355468-1.972657-10.820312 1.496093-13.1875 18.554688-29.097656 35.296876-47.269532 49.035157-20.191406 15.265625-42.835937 27.242187-67.105468 34.558593-.035156.011719-.070313.023438-.105469.035157-13.511719 4.058593-22.195313 5.035156-22.316406 5.046875-3.242188.355468-5.863281 2.746094-6.566407 5.925781-.320312 1.441406-.617187 2.890625-.898437 4.34375-.089844.007813-.175781.019531-.261719.03125-4.007812.390625-7.8125 1.382813-11.621094 2.648437-1.75.644532-3.460937 1.375-5.121093 2.222657 6.367187-42.5 27.066406-81.960938 59.351562-112.5625 39.296875-37.25 91.449219-57.761719 146.859375-57.761719 45.332032 0 88.34375 13.578125 124.390625 39.265625 3.371094 2.40625 8.054688 1.621094 10.457031-1.753906 2.40625-3.371094 1.621094-8.054688-1.753906-10.460938-38.601562-27.511719-84.625-42.050781-133.09375-42.050781-59.265625 0-115.085937 21.972656-157.175781 61.871094-38.855469 36.828125-62.09375 85.632812-65.636719 137.640625-5.695312 7.769531-9.066406 17.34375-9.066406 27.695312zm33.859375-29.160156c2.011719-.910156 4.304687-1.65625 6.539063-2.132813-1.046876 10.207032-1.179688 20.523438-.421876 30.753907.710938 9.613281 2.222657 19.171875 4.511719 28.535156.027344.101563.054688.207031.078125.308594.300782 1.210937.589844 2.421875.914063 3.625-5.816407-.265625-11.511719-2.148438-16.339844-5.40625-8.519531-5.75-14.140625-15.492188-14.140625-26.519531 0-12.960938 7.75-24.148438 18.859375-29.164063zm173.511719 196.933594c8.128906.980469 16.320312 1.476562 24.507812 1.476562 8.210938 0 16.339844-.566406 24.492188-1.476562 3.828125-.460938 7.632812-1.03125 11.417968-1.707031-2.140624 17.914062-17.429687 31.847656-35.910156 31.847656-18.480468 0-33.769531-13.933594-35.910156-31.847656 3.777344.675781 7.578125 1.246093 11.402344 1.707031zm-174.953125-123.09375c.15625.050781.316406.09375.472656.144531 4.042969 1.265625 8.226563 1.957031 12.457031 2.121094 1.632813.054687 3.269532.035156 4.898438-.074219 8.710937 23.597656 22.703125 45.632813 40.699218 64.019531 15.648438 15.984375 34.421876 29.320313 54.929688 39.097656-3.175781 1.9375-6.601562 4.214844-10.148438 6.828126-4.234374 3.117187-8.300781 6.441406-12.160156 10.015624-.945312.882813-1.925781 1.804688-2.867187 2.722657-7.769531-3.425781-24.9375-12.074219-42.113281-27.894531-28-25.789063-43.5-58.371094-46.167969-96.980469zm55.992187 165.082031c0-4.261719 3.46875-7.730469 7.730469-7.730469 3.351563 0 6.503906 2.375 7.425781 5.59375.355469 1.242188.308594 2.527344.308594 3.804688-.164062.023437-.324219.058593-.488281.085937-5.199219.8125-10.277344 2.425782-14.976563 4.796875zm-1.65625 25.953125c6.277344-6.054687 14.839844-9.5625 23.539063-9.796875 11.050781-.300781 21.730469 4.59375 28.75 13.132812 6.898437 8.394532 9.648437 19.824219 7.324219 30.4375-.023438.101563-.042969.203126-.066407.304688h-70.007812c-2.734375-12.355469 1.523437-25.453125 10.460937-34.078125zm74.820313 34.078125c1.953125-12.300781-.816407-25.324219-7.640625-35.746094-7.890625-12.050781-20.796875-20.257812-34.988282-22.574218-.023437-.003907-.046874-.007813-.070312-.011719 0-1.890625.003906-3.777344-.351562-5.644531-.449219-2.589844-1.355469-5.117188-2.675782-7.394532 3.839844-5.558594 7.929688-10.480468 12.074219-14.839844.007813-.007812.011719-.011718.019531-.019531 13.636719-14.3125 28.039063-22.488281 35.640625-26.171875 5.644531 2.039063 11.367188 3.808594 17.15625 5.324219.515625 27.765625 23.25 50.199219 51.140625 50.199219s50.625-22.433594 51.144532-50.199219c5.785156-1.515625 11.507812-3.289063 17.152343-5.324219 6.714844 3.253906 18.734375 10.015625 30.84375 21.410156 6.308594 5.90625 11.972657 12.527344 16.882813 19.636719.039062.054688-.464844.871094-.511719.957031-.191406.375-.371094.753907-.542969 1.140626-1.558594 3.507812-1.964844 7.125-1.964844 10.921874-.023437.003907-.046874.011719-.070312.015626-10.375 1.5625-20.203125 6.53125-27.746094 13.796874-11.8125 11.378907-17.457031 28.335938-14.882812 44.523438zm225.890625 0h-70.011719c-.003906-.023438-.011719-.050781-.015625-.074219-3.605469-15.953125 4.386719-32.695312 18.972656-40.023437 13.234375-6.648438 29.949219-4.253906 40.617188 6.042968 8.921875 8.625 13.167968 21.710938 10.4375 34.054688zm-12.117188-60.03125v6.550781c-4.84375-2.449219-10.097656-4.09375-15.464844-4.882812v-1.667969c0-4.195312 3.542969-7.730469 7.734376-7.730469 4.261718 0 7.730468 3.46875 7.730468 7.730469zm55.992188-165.082031c-2.65625 38.40625-18.007813 70.847656-45.738282 96.582031-17.226562 15.988281-34.691406 24.800781-42.554687 28.285156-8.816406-8.601562-17.652344-14.980468-25.167969-19.5625 20.511719-9.773437 39.28125-23.109375 54.929688-39.097656 17.996094-18.386719 31.988281-40.417969 40.699218-64.015625 2.351563.15625 4.714844.140625 7.0625-.050781 3.652344-.292969 7.285157-1.003906 10.769532-2.140625zm3.277344-18.15625c-4.292969 2.898437-9.335938 4.742187-14.488282 5.285156-.152344.015625-1.835937.0625-1.851562.117187 2.851562-10.585937 4.683594-21.46875 5.5-32.402343.742187-9.996094.628906-20.039063-.34375-30.011719-.027344-.269531-.046875-.535156-.074219-.804688.078125.015626.15625.027344.230469.046876 2.167968.46875 4.296875 1.164062 6.316406 2.085937 11.105469 5.019531 18.851562 16.203125 18.851562 29.160156 0 11.035157-5.621093 20.773438-14.140624 26.523438zm-240.070313-157.28125c10.632813 8 34.148437 24.828125 65.054687 41.835937 53.921876 29.667969 103.359376 45.371094 147.074219 46.730469.238281 1.3125.460938 2.648437.671875 4 2.175782 13.921875 2.496094 28.125.96875 42.128906-7.851562 71.484375-63.363281 129.773438-135.871094 145.878907-26.601562 5.910156-54.53125 5.910156-81.132812 0-72.507812-16.101563-128.023438-74.394532-135.871094-145.878907-1.710937-15.609375-1.082031-31.460937 1.777344-46.898437 8.257812-1.464844 25.011719-5.285156 45.714844-14.527344 13.40625-5.984375 29.804687-14.925781 46.808594-28.03125 16.75-12.90625 31.945312-28.292969 44.804687-45.238281zm0 0"/></svg>